<svg xmlns="http://www.w3.org/2000/svg" aria-hidden="true" overflow="hidden" style="position:absolute;width:0;height:0">
    <defs>
        <symbol id="icon-facebook" viewBox="0 0 32 32">
            <path d="M29.333 16.405C29.333 8.996 23.364 2.99 16 2.99S2.667 8.996 2.667 16.405c0 6.696 4.876 12.245 11.25 13.252v-9.374h-3.385v-3.878h3.385V13.45c0-3.362 1.991-5.219 5.036-5.219 1.459 0 2.985.262 2.985.262v3.301h-1.681c-1.656 0-2.173 1.034-2.173 2.095v2.516h3.698l-.591 3.878h-3.107v9.374c6.374-1.006 11.25-6.556 11.25-13.252z"/>
        </symbol>
        <symbol id="icon-instagram" viewBox="0 0 32 32">
            <path d="M15.998 6.161c3.206 0 3.585.014 4.846.071 1.172.052 1.804.248 2.226.412.558.216.961.478 1.378.895.422.422.679.82.9 1.378.164.422.361 1.059.412 2.226.056 1.266.071 1.645.071 4.847s-.014 3.585-.071 4.847c-.052 1.172-.248 1.804-.412 2.227-.216.558-.478.961-.895 1.377-.422.422-.82.679-1.378.9-.422.164-1.06.361-2.226.412-1.266.056-1.645.071-4.847.071s-3.585-.014-4.847-.071c-1.172-.052-1.804-.248-2.226-.412-.558-.216-.961-.478-1.378-.895-.422-.422-.679-.82-.9-1.378-.164-.422-.361-1.06-.412-2.226-.056-1.266-.071-1.645-.071-4.847s.014-3.585.071-4.847c.052-1.172.248-1.804.412-2.226.216-.558.478-.961.895-1.378.422-.422.82-.679 1.378-.9.422-.164 1.059-.361 2.226-.412 1.261-.056 1.641-.071 4.847-.071h.001zm0-2.16c-3.258 0-3.665.014-4.945.071-1.275.056-2.151.262-2.91.558-.792.309-1.462.717-2.127 1.387-.67.666-1.078 1.336-1.387 2.123-.295.764-.502 1.636-.558 2.91C4.015 12.335 4 12.742 4 15.999s.014 3.665.071 4.945c.056 1.275.262 2.151.558 2.91.31.792.717 1.462 1.387 2.127.665.665 1.336 1.078 2.123 1.383.764.295 1.636.502 2.91.558 1.279.056 1.687.071 4.945.071s3.666-.014 4.945-.071c1.275-.056 2.151-.262 2.91-.558.787-.305 1.458-.717 2.123-1.383s1.078-1.336 1.383-2.123c.295-.764.502-1.635.558-2.91.056-1.279.071-1.687.071-4.945s-.014-3.665-.071-4.945c-.056-1.275-.262-2.151-.558-2.91-.295-.797-.703-1.467-1.373-2.133-.665-.665-1.336-1.078-2.123-1.383-.764-.295-1.635-.502-2.91-.558-1.284-.061-1.692-.075-4.949-.075L15.999 4z"/>
            <path d="M15.997 9.836c-3.402 0-6.163 2.76-6.163 6.163s2.76 6.163 6.163 6.163c3.403 0 6.163-2.76 6.163-6.163s-2.76-6.163-6.163-6.163zm0 10.161c-2.208 0-3.998-1.79-3.998-3.998s1.79-3.998 3.998-3.998 3.998 1.79 3.998 3.998-1.79 3.998-3.998 3.998zm7.845-10.405c0 .795-.644 1.439-1.439 1.439s-1.439-.644-1.439-1.439.644-1.439 1.439-1.439 1.439.644 1.439 1.439z"/>
        </symbol>
        <symbol id="icon-linkedIn" viewBox="0 0 32 32">
            <path d="M25.75 4H6.25C5.013 4 4 5.013 4 6.25v19.5C4 26.987 5.013 28 6.25 28h19.5c1.237 0 2.25-1.013 2.25-2.25V6.25C28 5.013 26.987 4 25.75 4zM13 23.5h-3V13h3v10.5zm-1.5-12c-.829 0-1.5-.671-1.5-1.5s.671-1.5 1.5-1.5S13 9.171 13 10s-.671 1.5-1.5 1.5zm12 12h-3v-6c0-.829-.671-1.5-1.5-1.5s-1.5.671-1.5 1.5v6h-3V13h3v1.861c.619-.848 1.565-1.861 2.625-1.861 1.866 0 3.375 1.679 3.375 3.75v6.75z"/>
        </symbol>
        <symbol id="icon-menu" viewBox="0 0 32 32">
            <path d="M5.333 8h21.333v2.667H5.333V8zm0 6.667h21.333v2.667H5.333v-2.667zm0 6.666h21.333V24H5.333v-2.667z"/>
        </symbol>
        <symbol id="icon-X" viewBox="0 0 32 32">
            <path d="M22.901 5.657h3.68l-8.040 9.037 9.459 12.297h-7.406l-5.801-7.458-6.637 7.458h-3.682l8.6-9.666-9.074-11.668h7.594l5.243 6.817 6.064-6.817zM21.61 24.824h2.039l-13.163-17.115h-2.188l13.312 17.115z"></path>
        </symbol>
        <symbol id="icon-x-modal" viewBox="0 0 32 32">
        <path d="M29.671 28.729l-0.943 0.943c-0.521 0.521-1.365 0.521-1.886 0l-10.842-10.842-10.842 10.842c-0.521 0.521-1.365 0.521-1.886 0l-0.943-0.943c-0.521-0.521-0.521-1.365 0-1.886l10.842-10.842-10.842-10.842c-0.521-0.521-0.521-1.365 0-1.886l0.943-0.943c0.521-0.521 1.365-0.521 1.886 0l10.842 10.842 10.842-10.842c0.521-0.521 1.365-0.521 1.886 0l0.943 0.943c0.521 0.521 0.521 1.365 0 1.886l-10.842 10.842 10.842 10.842c0.521 0.521 0.521 1.365 0 1.886z"></path>
        </symbol>
        <symbol id="icon-youtube" viewBox="0 0 32 32">
            <path d="M28.791 9.604c-.152-.563-.449-1.077-.861-1.49s-.925-.711-1.489-.864C24.353 6.677 16 6.667 16 6.667s-8.352-.009-10.441.539c-.563.16-1.075.462-1.487.878s-.711.929-.867 1.493c-.551 2.088-.556 6.419-.556 6.419s-.005 4.352.541 6.419c.307 1.143 1.207 2.045 2.351 2.353 2.109.573 10.44.583 10.44.583s8.353.009 10.441-.537c.563-.153 1.077-.45 1.49-.862s.712-.925.866-1.488c.552-2.087.556-6.416.556-6.416s.027-4.353-.543-6.441zM13.328 20.007l.007-8 6.943 4.007-6.949 3.993z"/>
        </symbol>
        <symbol id="icon-logo" viewBox="0 0 75 32">
            <path d="M13.131 2.542c.332.165.705.638.955.918 2.148 2.4 3.275 5.457 3.076 8.674-.193 3.114-1.731 5.878-4.039 7.922-.437-.299-.837-.724-1.187-1.119-1.961-2.217-3.035-5.333-2.848-8.289.193-3.047 1.751-6.097 4.042-8.106z"/>
            <path d="M22.274 6.9c.006.011.014.021.019.032.122.249.158.644.189.92.162 1.437.028 2.878-.478 4.239-1.263 3.399-4.182 5.902-7.409 7.385-.038 0-.013.003-.071-.031.197-.323.472-.611.7-.914.348-.473.663-.97.944-1.485.989-1.819 1.461-3.82 1.46-5.883 0-.586-.014-1.171-.183-1.737.303-.336.673-.619 1.033-.891 1.16-.878 2.329-1.489 3.796-1.635zm-18.327.014c.174.007.35.029.522.056 1.326.202 2.486.908 3.521 1.725.289.228.605.466.823.765-.551 2.829.18 5.795 1.642 8.242.234.389.486.766.756 1.131.129.174.283.331.398.514l-.041.053c-2.412-1.031-4.671-2.857-6.125-5.038-1.525-2.289-2.029-4.754-1.498-7.447z"/>
            <path d="M24.634 13.227c.385-.046 1.246-.094 1.569.111.016.049.021.053.023.112.006.226-.141.563-.217.774-.512 1.452-1.387 2.749-2.543 3.766-2.263 2.001-5.196 2.719-8.159 2.528-.56-.058-1.136-.097-1.674-.269 2.482-.763 4.843-2.323 6.554-4.271.42-.479.729-1.035 1.138-1.516.777-.914 2.185-1.156 3.31-1.235zm-23.712.076c1.157-.136 2.726.054 3.679.774.566.428.908 1.223 1.376 1.765 1.464 1.695 3.297 3.032 5.359 3.907.439.188.891.384 1.355.498l-.928.155c-2.702.389-5.503-.094-7.815-1.597-1.575-1.024-2.683-2.428-3.335-4.18-.096-.257-.239-.536-.288-.803-.029-.156-.003-.259.088-.392.145-.107.334-.106.509-.127zm47.195-2.336c.901-.008 1.883-.088 2.773.042.572.083 1.154.289 1.502.779.256.361.339.868.26 1.3-.097.528-.431.833-.855 1.118.102.043.201.09.299.142.374.203.639.553.749.963.15.56.031 1.137-.248 1.633-.063.095-.137.179-.22.257-.855.811-2.729.654-3.833.644-.213-.002-.492.017-.65-.144-.039-.081-.055-.134-.06-.225-.073-1.186-.007-2.418-.007-3.608 0-.843-.085-1.941.025-2.755.085-.106.139-.106.266-.145zm3.018 4.173c-.477-.311-1.28-.222-1.834-.221l.003 1.537c.613.004 1.33.099 1.874-.23.128-.189.257-.47.219-.705-.027-.171-.12-.289-.262-.381zm-.228-2.734c-.455-.274-1.094-.205-1.605-.202v1.476c.549.004 1.204.085 1.684-.225.129-.185.254-.45.205-.684-.035-.171-.137-.278-.283-.366zm-11.189.159c.137-.011.276-.004.411.022.412.083.614.386.834.709.013-.113.02-.235.047-.346.027-.115.091-.186.194-.241.166-.089.524-.095.698-.03.127.047.269.158.312.291.129.394.079 4.247.004 4.774-.049.347-.157.69-.333.994-.282.491-.763.811-1.303.958-.761.206-1.627.14-2.307-.269-.303-.182-.445-.418-.525-.756.026-.122.056-.24.161-.32.34-.257 1.076.174 1.453.244.325.06.676.027.946-.177.446-.336.519-.957.595-1.469-.298.319-.581.575-1.021.683-.477.117-.999.037-1.409-.235-.54-.358-.841-.971-.952-1.594-.135-.759-.017-1.666.443-2.301.439-.605 1.042-.828 1.751-.937zm.081 1.162c-.355.134-.551.298-.703.652-.187.435-.193 1.065-.01 1.501.097.23.29.472.534.554.161.054.356.031.522.019.292-.104.458-.227.597-.51.213-.436.22-1.051.057-1.507-.094-.265-.281-.524-.546-.639-.136-.058-.305-.078-.452-.07zm29.404-1.121c.349-.046.692-.031 1.021.106.455.188.691.531.871.969.092-.231.194-.464.357-.656.258-.304.596-.425.987-.44.451-.017.913.086 1.244.41.217.213.351.498.423.791.193.779.085 2.451.088 3.331 0 .135.017.56-.088.64-.179.135-.814.105-1.038.074-.13-.018-.211-.088-.264-.207-.083-.182-.039-.507-.036-.708.009-.653.169-2.456-.217-2.932-.089-.109-.214-.178-.356-.187-.207-.015-.472.057-.623.205-.535.524-.357 2.389-.353 3.122.001.148.007.31-.011.457-.009.065-.031.14-.091.174-.228.131-.783.111-1.035.052-.131-.031-.187-.075-.234-.202-.077-.211-.034-.523-.03-.746.011-.654.167-2.28-.166-2.77-.1-.147-.249-.237-.423-.265-.199-.032-.406-.006-.568.122-.651.514-.473 2.314-.469 3.058.001.179.037.435-.005.602-.017.07-.037.112-.097.152-.209.137-.777.108-1.027.058-.105-.021-.173-.085-.218-.181-.064-.136-.083-4.047-.059-4.435.007-.108.029-.223.078-.32.064-.125.171-.206.301-.248.309-.1.696.011.969.163.066.244.019.564.008.82.033-.065.065-.13.098-.194.242-.467.469-.657.962-.814zm-5.629.02c1.441-.03 2.638 1.104 2.686 2.545s-1.072 2.651-2.512 2.717c-.947.043-1.844-.427-2.348-1.23s-.538-1.815-.088-2.65c.45-.835 1.315-1.362 2.262-1.382zm.299 1.166c-.153-.045-.32-.035-.477-.021-.387.172-.598.369-.747.773-.179.484-.15 1.159.079 1.62.124.248.316.45.583.54.183.061.355.071.542.027.371-.155.593-.354.745-.734.191-.477.189-1.114-.031-1.581-.137-.292-.381-.532-.695-.625zm-29.468-1.158c1.45-.065 2.679 1.056 2.747 2.506s-1.052 2.68-2.502 2.75c-1.453.07-2.687-1.052-2.755-2.505s1.057-2.685 2.51-2.751zm.408 1.173c-.168-.058-.341-.057-.515-.035-.388.192-.61.392-.758.816-.168.481-.144 1.167.098 1.618.132.246.332.426.602.508.165.051.352.055.52.015.37-.154.587-.353.736-.732.189-.481.173-1.117-.045-1.587-.128-.276-.346-.504-.638-.604zm22.865-1.144c.934-.151 1.877.211 2.469.949s.743 1.736.395 2.616c-.349.879-1.143 1.503-2.08 1.634-1.427.2-2.748-.787-2.963-2.212s.757-2.757 2.179-2.987zm.214 1.106c-.39.166-.614.354-.771.757-.185.473-.167 1.129.052 1.589.132.278.357.506.654.6.148.048.317.047.47.028.389-.164.616-.348.777-.752.187-.469.184-1.117-.034-1.575-.129-.272-.35-.502-.638-.604-.163-.058-.339-.057-.509-.042zm-13.356-1.161c.329-.039.646-.033.971.042.492.114.905.401 1.156.842.134.236.212.496.249.764.058.414.09 3.039-.005 3.4-.079.101-.159.138-.282.165-.21.045-.671.071-.842-.087-.148-.137-.119-.424-.12-.609-.247.364-.496.658-.944.77-.501.125-.965-.021-1.397-.27-.184-.17-.324-.344-.404-.585-.133-.406-.09-.953.118-1.326.504-.906 1.69-.851 2.558-1.107l.054-.017c-.035-.109-.07-.219-.115-.324-.491-1.132-1.715.105-2.307-.206-.119-.063-.205-.19-.236-.319-.041-.172.006-.284.1-.426.318-.485.914-.607 1.445-.708zm1.056 3.025c-.361.099-1.037.208-1.253.536-.07.107-.076.247-.031.365.032.083.095.156.15.224.373.025.606-.002.891-.261.173-.158.331-.411.323-.655-.002-.061-.019-.122-.033-.18l-.049-.028zm-15.771-2.05c.129-.41 1.135-2.375 1.455-2.559.166-.096 1.055-.11 1.233-.029.114.052.127.083.179.19-.091.509-1.215 2.215-1.547 2.772l-.584.971c.002.584.105 2.365-.099 2.788-.071.055-.122.085-.211.106-.274.064-.82.045-1.061-.107-.187-.246-.089-2.292-.089-2.744-.299-.477-2.225-3.553-2.174-3.847.064-.092.105-.114.208-.155.325-.01.986-.096 1.255.067.349.212 1.307 2.115 1.436 2.547zm23.856-2.615c.341-.009.899-.094 1.193.082.083.561.05 1.156.052 1.722l.003 2.622c0 .685.075 1.509-.013 2.181-.017.134-.1.178-.197.254-.355.012-.901.1-1.193-.131-.069-.262-.112-6.316-.046-6.555.032-.113.106-.126.202-.175zm-40.406 9.463c.47.167.943.301 1.436.381.85.138 1.837.097 2.6.54.564.327 1.141 1.092 1.3 1.727.029.117.021.126-.039.223-.59.213-1.163.162-1.75-.03-1.414-.462-2.856-1.493-3.548-2.841zm-.267.003c.03-.003.058.013.087.021-.001.013-.001.027-.004.041-.073.301-1.237 1.528-1.506 1.741-.929.734-2.308 1.316-3.507 1.173-.032-.007-.077-.016-.106-.029-.065-.03-.105-.054-.122-.123-.045-.187.061-.405.146-.568.275-.525.704-1.141 1.243-1.424.664-.349 1.644-.348 2.382-.479.473-.084.928-.212 1.386-.352z"/>
        </symbol>
        <symbol id="icon-check" viewBox="0 0 31 32">
            <path d="M26.045 10.44l-13.568 13.568c-0.116 0.117-0.277 0.189-0.454 0.189-0 0-0 0-0 0v0c-0 0-0 0-0 0-0.178 0-0.338-0.072-0.454-0.189l-6.899-6.899c-0.117-0.116-0.189-0.277-0.189-0.454 0-0 0-0 0-0v0c0-0.171 0.068-0.334 0.189-0.454l0.896-0.896c0.116-0.117 0.277-0.189 0.454-0.189v0c0.178 0 0.338 0.072 0.454 0.189l5.542 5.542 12.224-12.224c0.253-0.245 0.656-0.245 0.909 0l0.896 0.909c0.117 0.116 0.189 0.277 0.189 0.454 0 0 0 0 0 0v0c0 0 0 0 0 0 0 0.178-0.072 0.338-0.189 0.454l-0 0z"></path>
        </symbol>
        <symbol id="icon-x" viewBox="0 0 32 32">
            <path d="M21.589 8.459l-5.657 5.656-5.656-5.656-1.885 1.885 5.656 5.656-5.656 5.656 1.885 1.885 5.656-5.656 5.657 5.656 1.885-1.885-5.656-5.656 5.656-5.656-1.885-1.885z"></path>
        </symbol>
    </defs>
</svg>