<svg xmlns="http://www.w3.org/2000/svg" fill="none" viewBox="0 0 24 20">
  <path fill="#0D0B0A" d="M11.4506.41951c.2964.1472.6297.56994.8534.8199 1.9195 2.14422 2.9263 4.87521 2.7482 7.74997-.1724 2.78192-1.5462 5.25212-3.6083 7.07772-.3905-.2669-.7478-.6468-1.0602-1-1.75173-1.9812-2.71192-4.7648-2.54463-7.4056.17247-2.72271 1.56425-5.44708 3.61153-7.24199Z"/>
  <path fill="#0D0B0A" d="M19.6207 4.31314c.0057.00963.0122.01888.0171.02894.1092.22245.1408.5754.1685.8223.1443 1.284.0249 2.57137-.4267 3.78709-1.1282 3.03723-3.736 5.27303-6.6193 6.59843-.034-.0004-.0112.0023-.063-.0279.1761-.2882.4219-.5458.6252-.8167.3109-.4228.5927-.8662.8432-1.3269.8833-1.6253 1.3057-3.41267 1.3043-5.25597-.0003-.52352-.0123-1.04646-.1638-1.55172.2704-.3001.6017-.55304.9233-.79642 1.0365-.78439 2.0809-1.33027 3.3912-1.46115Zm-16.37524.01271c.15561.006.3126.02619.4665.0496 1.18442.18021 2.22074.81093 3.14599 1.54088.25824.20373.54077.41617.73522.68388-.49195 2.52746.16051 5.17759 1.46741 7.36349.20872.3474.43419.6844.67564 1.0101.11529.1552.25252.296.35588.4589l-.0366.0475c-2.15484-.9215-4.17344-2.5522-5.47203-4.5013-1.36234-2.04494-1.81282-4.24773-1.33801-6.65305Z"/>
  <path fill="#0D0B0A" d="M21.7283 9.96613c.3436-.04101 1.1136-.08434 1.4016.09907.0145.0433.0188.0476.0203.1002.0058.2015-.1259.5033-.1942.6913a8.04017 8.04017 0 0 1-2.2722 3.3651c-2.0219 1.7877-4.6427 2.4291-7.2895 2.2589-.5-.0522-1.0153-.087-1.4959-.2402 2.2176-.6821 4.3271-2.0756 5.8555-3.8158.3757-.4279.6511-.9246 1.0167-1.3548.6938-.8167 1.9518-1.0326 2.9577-1.10377ZM.54306 10.0338c1.03342-.12184 2.43569.0484 3.28689.6918.50607.3826.81105 1.0929 1.2293 1.5765a13.0762 13.0762 0 0 0 4.78827 3.4907c.39228.1679.79608.3432 1.21088.4453l-.8291.1385c-2.4145.3475-4.91649-.0839-6.98237-1.4271C1.8401 14.0345.84954 12.7799.26718 11.215c-.0855-.2295-.21348-.4786-.2572-.7177-.02553-.1397-.00305-.2317.07854-.3501.12988-.0956.2987-.0944.45454-.1134Zm11.03314 6.368c.42.1493.8427.2689 1.2833.3404.7591.1231 1.6411.0871 2.3231.4825.5036.2921 1.0194.9761 1.1617 1.5432.0261.1041.0186.1126-.0348.1989-.5271.1899-1.039.1447-1.5635-.0271-1.2635-.4132-2.5514-1.334-3.1698-2.5379Zm-.2378.0031c.0266-.0023.0522.0116.078.0189-.0013.012-.0011.0244-.004.0364-.0648.2689-1.105 1.3653-1.3452 1.5552-.82993.6554-2.06224 1.1757-3.13296 1.0477-.02863-.0062-.0684-.0139-.09447-.0259-.05765-.0267-.09417-.048-.10937-.1103-.04059-.1675.05462-.3617.13076-.5072.24528-.4689.62937-1.019 1.11056-1.2724.59312-.3118 1.46893-.3107 2.12808-.4279.4223-.075.8292-.1896 1.2386-.3145Z"/>
</svg>
